# xmcd
#
# Track frame offsets:
#	150
#	8482
#	18744
#	39415
#	53575
#	66289
#	83469
#
# Disc length: 1363 seconds
#
# Revision: 1
# Processed by: cddbd v1.5.2PL0 Copyright (c) Steve Scherf et al.
# Submitted via: audiograbber 1.83.01
#
DISCID=46055107
DTITLE=Down By The Köttelbecke - So lange es geht
DYEAR=2010
DGENRE=Punk
TTITLE0=Pottsau
TTITLE1=Nicht auf meinem Schiff
TTITLE2=So lange es geht
TTITLE3=Silver Surfer
TTITLE4=Ganz normale Leute
TTITLE5=Der Mann der zu viel wusste
TTITLE6=Silver Surfer (Extended)
EXTD=
EXTT0=
EXTT1=
EXTT2=
EXTT3=
EXTT4=
EXTT5=
EXTT6=
PLAYORDER=
